:SAMPLES-PER-SECOND 30
:FULLY-SPECIFIED
:DEGREES
495
root  60.2331 37.8047 10.3404 155.326 69.6945 164.775
RightUpLeg  -15.3803 -3.71542 -4.44491
RightLeg  17.1553 1.27558 0.249628
RightFoot  -3.90422 -0.534819 7.75605
RightToes  -8.73116e-010 0 -3.6325e-017
Spine  8.03518 0.107581 -14.8428
Spine1  2.6172 -4.61447 18.1689
HEad  -137.88 75.9785 -78.0252
LeftShoulder1  -2.6036 7.73925 -53.2382
LeftArm  -21.4852 -54.1818 -10.8502
LeftForeArm  27.5277 -57.9149 -15.7809
LeftHand  5.9155 -40.6588 -3.47873
RightShoulder  -0.960668 5.60352 -21.7907
RightArm  69.1746 27.4083 72.0395
RightForeArm  103.534 50.8048 7.55703
RightHand  -3.67237 -4.96252 -24.3903
LeftUpLeg  10.3271 5.40062 -9.55823
LeftLeg  19.8323 -0.905143 -0.142035
LeftFoot  -18.8876 0.665888 8.34863
LeftToes  -5.63919e-011 3.32596e-011 1.92487e-011
496
root  61.4274 37.6366 9.815 155.964 69.6614 165.005
RightUpLeg  -14.9439 -7.20408 -2.99163
RightLeg  10.663 2.12083 0.600831
RightFoot  -2.99456 -0.662767 8.77742
RightToes  -8.73116e-010 0 -3.6325e-017
Spine  5.3073 -0.556592 -16.4676
Spine1  5.68325 -6.53175 22.6877
HEad  -127.374 73.8576 -48.2271
LeftShoulder1  -3.23688 8.40768 -56.9613
LeftArm  -27.8569 -59.3366 -2.13276
LeftForeArm  88.8021 -56.0946 -10.0285
LeftHand  -111.746 -42.0385 145.641
RightShoulder  -1.53582 6.57906 -27.0946
RightArm  99.3398 21.4874 74.8611
RightForeArm  116.285 59.239 11.4272
RightHand  0.468426 -35.8149 -1.57664
LeftUpLeg  12.4721 5.88708 -9.32603
LeftLeg  19.1711 -1.35977 -0.322275
LeftFoot  -20.1566 0.788734 8.64835
LeftToes  -5.63919e-011 3.32596e-011 1.92487e-011
497
root  62.5472 37.4407 9.27147 156.779 70.0225 165.906
RightUpLeg  -15.4596 -7.63259 -1.77877
RightLeg  10.7129 1.65156 0.90917
RightFoot  1.52951 -0.355189 3.76311
RightToes  -8.73116e-010 0 -3.6325e-017
Spine  4.89082 -1.02599 -16.0497
Spine1  6.37951 -7.7603 25.5964
HEad  -88.7912 56.7229 43.2143
LeftShoulder1  -3.77051 8.89764 -59.9738
LeftArm  -35.6943 -63.3616 8.77095
LeftForeArm  95.1154 -52.1668 -8.44152
LeftHand  -96.0554 -37.1647 143.071
RightShoulder  -2.15219 7.43421 -32.0532
RightArm  98.4887 22.5567 73.1648
RightForeArm  94.789 61.481 14.4363
RightHand  -0.857608 -28.8131 4.35824
LeftUpLeg  14.5442 6.49796 -8.75235
LeftLeg  19.4502 -1.56391 -0.3495
LeftFoot  -21.8322 0.844617 7.76367
LeftToes  -5.63919e-011 3.32596e-011 1.92487e-011
498
root  63.6618 37.1294 8.73609 159.558 70.8045 168.812
RightUpLeg  -17.5206 -7.4233 0.0272607
RightLeg  16.7001 3.41772 1.11618
RightFoot  6.91329 0.529358 -3.23476
RightToes  -8.73116e-010 0 -3.6325e-017
Spine  4.37538 -1.55679 -14.635
Spine1  7.61379 -9.16627 28.3567
HEad  -104.797 47.4631 48.0335
LeftShoulder1  -4.28376 9.29008 -63.08
LeftArm  -47.5762 -65.8853 22.3749
LeftForeArm  92.4983 -47.1159 -6.52679
LeftHand  -93.5171 -34.7636 143.628
RightShoulder  -2.80784 8.08319 -37.0336
RightArm  89.09 30.8387 69.9658
RightForeArm  -7.1109 52.5113 16.5492
RightHand  0.770729 -7.51877 -3.91167
LeftUpLeg  14.5912 7.09158 -7.36175
LeftLeg  23.8231 -2.00701 -0.620043
LeftFoot  -23.7751 0.763043 5.75668
LeftToes  -5.63919e-011 3.32596e-011 1.92487e-011
499
root  64.6739 36.6696 8.27063 164.53 71.8065 174.101
RightUpLeg  -20.1264 -4.77123 1.81703
RightLeg  24.7973 1.50614 0.513657
RightFoot  4.84563 0.767383 -5.15389
RightToes  -8.73116e-010 0 -3.6325e-017
Spine  4.28988 -2.09014 -11.8368
Spine1  9.68735 -10.4388 29.5481
HEad  -101.493 45.9682 44.2673
LeftShoulder1  -4.65761 9.53293 -65.426
LeftArm  -50.6239 -68.5854 36.0243
LeftForeArm  107.996 -48.9652 -6.43642
LeftHand  -52.9387 -14.3444 143.356
RightShoulder  -3.4119 8.42817 -41.7624
RightArm  100.866 28.5966 73.5897
RightForeArm  -29.1983 68.5338 31.8888
RightHand  3.14284 -29.1933 -19.4295
LeftUpLeg  11.4473 8.02229 -4.6652
LeftLeg  34.6161 -3.44404 -2.29732
LeftFoot  -24.3209 0.301305 1.33247
LeftToes  -5.63919e-011 3.32596e-011 1.92487e-011
500
root  65.5987 36.0743 7.9944 173.435 71.3643 -176.019
RightUpLeg  -21.5141 -3.58662 5.0214
RightLeg  31.2514 -0.559197 -0.626754
RightFoot  1.78828 0.748904 -6.41891
RightToes  -8.73116e-010 0 -3.6325e-017
Spine  4.17677 -3.20309 -8.92847
Spine1  13.8897 -13.0028 31.2058
HEad  -103.898 50.5126 36.3991
LeftShoulder1  -4.91329 9.64752 -67.3332
LeftArm  6.55855 -69.8511 41.4982
LeftForeArm  -161.936 -69.4969 -58.2465
LeftHand  67.9844 54.879 90.6709
RightShoulder  -3.91192 8.71052 -45.1358
RightArm  113.538 56.7307 82.5092
RightForeArm  60.6847 65.613 17.4493
RightHand  -1.76842 -38.4013 5.94017
LeftUpLeg  5.28475 7.98648 0.18803
LeftLeg  50.5467 -4.91985 -5.92793
LeftFoot  -19.2732 -0.160598 -4.78984
LeftToes  -5.63919e-011 3.32596e-011 1.92487e-011
501
root  66.4817 35.5753 8.15484 -179.525 67.4704 -165.859
RightUpLeg  -19.7771 -5.42208 9.12492
RightLeg  35.3817 -3.03129 -2.56894
RightFoot  -1.39625 0.659467 -7.59784
RightToes  -8.73116e-010 0 -3.6325e-017
Spine  8.57078 -3.74838 -7.8443
Spine1  13.3477 -14.8431 36.3293
HEad  -106.722 57.2542 25.3535
LeftShoulder1  -4.94719 9.40228 -68.2798
LeftArm  89.0603 -61.4232 43.2044
LeftForeArm  -130.266 -48.436 -176.494
LeftHand  -5.98688 32.2721 -16.3068
RightShoulder  -4.01682 7.41913 -49.6408
RightArm  -161.751 46.376 149.111
RightForeArm  98.4426 75.5009 43.0952
RightHand  -1.59701 -40.3681 3.18597
LeftUpLeg  -0.831595 4.18602 6.02571
LeftLeg  65.2868 -3.98568 -8.60674
LeftFoot  -7.63917 0.226002 -7.56322
LeftToes  -5.63919e-011 3.32596e-011 1.92487e-011
502
root  67.4281 35.2143 8.26849 -172.689 63.7933 -155.587
RightUpLeg  -16.8737 -8.19475 14.3375
RightLeg  37.0143 -4.45439 -3.87334
RightFoot  -4.00871 0.449094 -7.44537
RightToes  -8.73116e-010 0 -3.6325e-017
Spine  13.72 -3.19184 11.7747
Spine1  9.24429 -5.48387 17.2365
HEad  -118.224 46.4932 13.601
LeftShoulder1  -4.36584 12.148 -51.0202
LeftArm  42.9118 -80.3269 100.502
LeftForeArm  168.545 -62.4004 -155.806
LeftHand  3.40044 28.9446 16.5858
RightShoulder  2.48521 -8.00714 -55.8671
RightArm  -136.385 37.8976 -173.472
RightForeArm  179.014 74.4205 150.931
RightHand  -0.722831 -53.6299 2.10567
LeftUpLeg  -6.41395 0.544286 12.8996
LeftLeg  75.4346 -2.42837 -9.68955
LeftFoot  -2.58739 0.407779 -4.99882
LeftToes  -5.63919e-011 3.32596e-011 1.92487e-011
503
root  68.2821 35.1269 8.18677 -168.842 62.4527 -148.441
RightUpLeg  -12.9451 -8.97735 18.1536
RightLeg  36.8819 -5.52755 -4.72154
RightFoot  -4.97644 0.440518 -8.46289
RightToes  -8.73116e-010 0 -3.6325e-017
Spine  18.2073 -4.18791 50.491
Spine1  7.20586 13.0416 -32.4991
HEad  -134.555 22.463 24.0855
LeftShoulder1  -5.74201 23.4981 -20.0323
LeftArm  -104.322 -67.8571 -129.315
LeftForeArm  102.611 -22.1888 -176.642
LeftHand  -2.76375 3.23864 21.7256
RightShoulder  15.2877 -31.4235 -66.5173
RightArm  -151.712 26.6695 -156.288
RightForeArm  133.42 69.1887 149.76
RightHand  18.5705 -64.1137 -32.147
LeftUpLeg  -9.91587 -1.32285 18.3467
LeftLeg  79.8266 -1.96266 -11.5624
LeftFoot  -5.09974 0.336601 -5.57927
LeftToes  -5.63919e-011 3.32596e-011 1.92487e-011
504
root  68.8483 35.2018 7.88753 -166.888 63.355 -146.245
RightUpLeg  -11.5597 -9.07984 18.7314
RightLeg  36.8006 -5.08707 -4.35876
RightFoot  -6.30866 0.307181 -7.96599
RightToes  -8.73116e-010 0 -3.6325e-017
Spine  19.0234 -5.07418 50.0469
Spine1  9.18653 12.9107 -31.6278
HEad  -138.655 22.8039 14.4539
LeftShoulder1  -6.49476 23.2517 -26.0405
LeftArm  -60.3557 -75.5251 -177.9
LeftForeArm  61.5099 -41.3316 -145.543
LeftHand  15.1107 -22.7086 3.43458
RightShoulder  17.145 -34.2643 -66.1746
RightArm  -152.155 23.1198 -152.832
RightForeArm  160.455 67.2036 156.177
RightHand  4.05008 -66.3823 -6.90167
LeftUpLeg  -14.3783 -1.43706 19.2778
LeftLeg  79.0898 -2.12149 -11.7003
LeftFoot  -6.40901 0.241396 -4.74457
LeftToes  -5.63919e-011 3.32596e-011 1.92487e-011
505
root  69.3258 35.5111 7.53061 -164.062 65.0887 -144.635
RightUpLeg  -10.8415 -7.51973 18.8305
RightLeg  35.3814 -4.71123 -3.86221
RightFoot  -5.67309 0.396465 -8.67705
RightToes  -8.73116e-010 0 -3.6325e-017
Spine  19.2721 -5.09047 48.6443
Spine1  10.4719 12.4767 -29.9455
HEad  -143.046 23.2936 -15.5933
LeftShoulder1  -6.68133 23.2126 -27.0107
LeftArm  128.463 -74.9242 71.0371
LeftForeArm  -11.4119 -56.1467 -7.3931
LeftHand  -80.3926 -37.0179 123.944
RightShoulder  18.333 -39.1148 -62.1021
RightArm  -146.871 13.8493 -156.932
RightForeArm  149.678 71.3643 144.298
RightHand  13.3211 -65.147 -22.3944
LeftUpLeg  -18.2461 -1.38303 19.3317
LeftLeg  73.7246 -3.39011 -11.999
LeftFoot  -8.44529 0.154419 -4.09214
LeftToes  -5.63919e-011 3.32596e-011 1.92487e-011
506
root  69.8239 36.0133 7.19743 -161.53 66.6553 -144.045
RightUpLeg  -9.97587 -6.19627 18.4344
RightLeg  32.3676 -4.21409 -3.15072
RightFoot  -4.1418 0.597122 -9.92941
RightToes  -8.73116e-010 0 -3.6325e-017
Spine  19.5553 -5.46269 47.6054
Spine1  10.4124 12.5064 -33.2804
HEad  -148.332 19.9846 -5.14139
LeftShoulder1  -6.57796 22.2664 -28.6314
LeftArm  96.2139 -83.6042 93.5811
LeftForeArm  -31.9349 -51.7963 -16.5381
LeftHand  -81.7245 -39.7825 129.816
RightShoulder  16.6782 -39.5278 -56.9606
RightArm  -139.694 16.4589 -167.26
RightForeArm  86.0672 80.1959 88.1987
RightHand  20.5004 -50.6487 -46.4097
LeftUpLeg  -20.5826 -2.01398 19.0512
LeftLeg  63.9045 -5.89604 -12.4003
LeftFoot  -8.54311 0.0999794 -2.06047
LeftToes  -5.63919e-011 3.32596e-011 1.92487e-011
